<svg width="28" height="18" viewBox="0 0 28 18" fill="none" xmlns="http://www.w3.org/2000/svg">
<g clip-path="url(#clip0_4_7)">
<path fill-rule="evenodd" clip-rule="evenodd" d="M15 9C15 8.88214 14.9549 8.76911 14.8745 8.68577C14.7941 8.60244 14.6851 8.55562 14.5715 8.55562H4.46382L7.16107 5.75957C7.24154 5.67612 7.28675 5.56295 7.28675 5.44494C7.28675 5.32694 7.24154 5.21376 7.16107 5.13032C7.0806 5.04688 6.97146 5 6.85766 5C6.74386 5 6.63472 5.04688 6.55425 5.13032L3.1259 8.68538C3.08599 8.72666 3.05433 8.7757 3.03272 8.82968C3.01112 8.88367 3 8.94155 3 9C3 9.05845 3.01112 9.11633 3.03272 9.17032C3.05433 9.2243 3.08599 9.27334 3.1259 9.31462L6.55425 12.8697C6.5941 12.911 6.6414 12.9438 6.69346 12.9661C6.74552 12.9885 6.80131 13 6.85766 13C6.97146 13 7.0806 12.9531 7.16107 12.8697C7.24154 12.7862 7.28675 12.6731 7.28675 12.5551C7.28675 12.4371 7.24154 12.3239 7.16107 12.2404L4.46382 9.44438H14.5715C14.6851 9.44438 14.7941 9.39756 14.8745 9.31423C14.9549 9.23089 15 9.11786 15 9Z" fill="black"/>
</g>
<g clip-path="url(#clip1_4_7)">
<path fill-rule="evenodd" clip-rule="evenodd" d="M13 9C13 9.11786 13.0451 9.23089 13.1255 9.31423C13.2059 9.39756 13.3149 9.44438 13.4285 9.44438L23.5362 9.44438L20.8389 12.2404C20.7585 12.3239 20.7133 12.4371 20.7133 12.5551C20.7133 12.6731 20.7585 12.7862 20.8389 12.8697C20.9194 12.9531 21.0285 13 21.1423 13C21.2561 13 21.3653 12.9531 21.4457 12.8697L24.8741 9.31462C24.914 9.27334 24.9457 9.2243 24.9673 9.17032C24.9889 9.11633 25 9.05845 25 9C25 8.94155 24.9889 8.88367 24.9673 8.82968C24.9457 8.7757 24.914 8.72666 24.8741 8.68538L21.4457 5.13032C21.4059 5.089 21.3586 5.05623 21.3065 5.03387C21.2545 5.01151 21.1987 5 21.1423 5C21.0285 5 20.9194 5.04688 20.8389 5.13032C20.7585 5.21376 20.7133 5.32694 20.7133 5.44494C20.7133 5.56295 20.7585 5.67612 20.8389 5.75957L23.5362 8.55562L13.4285 8.55562C13.3149 8.55562 13.2059 8.60244 13.1255 8.68577C13.0451 8.76911 13 8.88214 13 9Z" fill="black"/>
</g>
<rect width="28" height="18" rx="0.5" stroke="black" stroke-width="4" mask="url(#path-1-inside-1_4_7)"/>
<defs>
<clipPath id="clip0_4_7">
<rect width="12" height="10" fill="white" transform="matrix(0 -1 1 0 1 15)"/>
</clipPath>
<clipPath id="clip1_4_7">
<rect width="12" height="10" fill="white" transform="matrix(0 1 -1 0 27 3)"/>
</clipPath>
</defs>
</svg>
